<svg xmlns="http://www.w3.org/2000/svg" viewBox="0 0 500 500"><defs><style>.cls-1{fill:#fff;}</style></defs><g id="Layer_2" data-name="Layer 2"><g id="Play_1" data-name="Play 1"><path class="cls-1" d="M500,250c0,138.07-111.93,250-250,250S0,388.07,0,250,111.93,0,250,0,500,111.93,500,250ZM251,19.9c-127,0-230,103-230,230.12s103,230.12,230,230.12S481,377.11,481,250,378,19.9,251,19.9Z"/><path class="cls-1" d="M417.28,240.84,149.53,101.48a10.29,10.29,0,0,0-15.05,9.13V389.33a10.29,10.29,0,0,0,15.05,9.13L417.28,259.1A10.29,10.29,0,0,0,417.28,240.84Z"/></g></g></svg>